<svg viewBox="0 0 100 100" xmlns="http://www.w3.org/2000/svg">

  <symbol id="language">
   <path d="M8 1C9.7509 2.91685 10.7459 5.40442 10.8 8C10.7459 10.5956 9.7509 13.0832 8 15M8 1C6.2491 2.91685 5.25407 5.40442 5.2 8C5.25407 10.5956 6.2491 13.0832 8 15M8 1C4.13401 1 1 4.13401 1 8C1 11.866 4.13401 15 8 15M8 1C11.866 1 15 4.13401 15 8C15 11.866 11.866 15 8 15M1.35001 5.9H14.65M1.35 10.1H14.65" stroke="white" stroke-opacity="0.93" stroke-linecap="round" stroke-linejoin="round"/>
  </symbol>

  <symbol id="dropdown-arrow">
<path d="M0 0.5L5 5.5L10 0.5H0Z" fill="white"/>
  </symbol>

  <symbol id="search-icon">
<path d="M12.7549 11.255H11.9649L11.6849 10.985C12.6649 9.845 13.2549 8.365 13.2549 6.755C13.2549 3.165 10.3449 0.255005 6.75488 0.255005C3.16488 0.255005 0.254883 3.165 0.254883 6.755C0.254883 10.345 3.16488 13.255 6.75488 13.255C8.36488 13.255 9.84488 12.665 10.9849 11.685L11.2549 11.965V12.755L16.2549 17.745L17.7449 16.255L12.7549 11.255ZM6.75488 11.255C4.26488 11.255 2.25488 9.245 2.25488 6.755C2.25488 4.26501 4.26488 2.255 6.75488 2.255C9.24488 2.255 11.2549 4.26501 11.2549 6.755C11.2549 9.245 9.24488 11.255 6.75488 11.255Z" fill="white"/>
  </symbol>

  <symbol id="search-icon-small">
    <path fill-rule="evenodd" clip-rule="evenodd" d="M8.66699 0.708252C4.17968 0.708252 0.541992 4.34594 0.541992 8.83325C0.541992 13.3206 4.17968 16.9583 8.66699 16.9583C13.1543 16.9583 16.792 13.3206 16.792 8.83325C16.792 4.34594 13.1543 0.708252 8.66699 0.708252ZM1.79199 8.83325C1.79199 5.03629 4.87004 1.95825 8.66699 1.95825C12.464 1.95825 15.542 5.03629 15.542 8.83325C15.542 12.6302 12.464 15.7083 8.66699 15.7083C4.87004 15.7083 1.79199 12.6302 1.79199 8.83325Z" fill="white"/>
                <path d="M15.7757 15.0581C15.5316 14.814 15.1359 14.814 14.8918 15.058C14.6477 15.3021 14.6477 15.6979 14.8918 15.9419L18.225 19.2752C18.4691 19.5193 18.8648 19.5193 19.1089 19.2752C19.353 19.0312 19.353 18.6354 19.1089 18.3913L15.7757 15.0581Z" fill="white"/>
  </symbol>

  <symbol id="court">
<path d="M13.6312 5.9219C13.0872 5.96934 12.5361 6.1857 12.0105 6.33182C11.1808 6.56239 10.3468 6.77745 9.5171 7.00803C8.96955 7.16025 8.28747 7.43403 7.71206 7.39813C7.39153 7.37818 7.20128 6.8886 6.9611 6.70309C6.26319 6.16411 5.14486 6.25726 4.56326 6.93011C4.15442 7.40305 4.03293 8.13992 4.24278 8.72699C4.35913 9.05245 4.7304 9.30921 4.57351 9.66763C3.96658 11.054 3.27325 12.4136 2.61398 13.7762C2.29168 14.4423 2.04624 15.2104 1.6409 15.8296C1.4509 16.1199 1.14824 16.0807 0.852477 16.1829C0.512359 16.3004 0.23764 16.5533 0.112773 16.8929C-0.231019 17.8282 0.225375 18.9274 1.28883 18.95C1.3443 19.5855 1.69075 20.199 2.07297 20.6954C3.61889 22.7028 6.43088 23.0146 8.4574 21.5656C9.00583 21.1734 9.45022 20.6097 9.75099 20.0097C9.88495 19.7424 9.959 19.251 10.1756 19.0499C10.3432 18.8943 10.6206 18.9704 10.8261 18.9257C11.1333 18.8587 11.3995 18.6522 11.5652 18.3887C11.9696 17.7457 11.8087 16.6773 11.1378 16.2838C10.8374 16.1076 10.3745 16.1864 10.1624 15.8863C9.9019 15.5179 9.7637 15.0511 9.56398 14.6489C8.99155 13.4958 8.47947 12.3132 7.91159 11.1581C7.71866 10.7657 7.543 10.3659 7.35057 9.9737C7.26842 9.80627 7.1291 9.60842 7.16862 9.41268C7.19642 9.2748 7.29915 9.15742 7.36815 9.03867C7.46533 8.87149 7.52218 8.6434 7.6731 8.51505C7.96969 8.26278 8.70225 8.26328 9.08076 8.17888C10.7139 7.81471 12.3324 7.31061 13.9429 6.85693C14.0787 7.20757 14.4564 7.43278 14.5465 7.79196C14.6961 8.38913 14.5663 9.1712 14.5663 9.7867V13.9632V25.8069C13.5622 25.8069 11.6919 25.4219 11.2353 26.6173C11.0999 26.9716 11.1378 27.3675 11.1378 27.7393C10.0581 27.9078 9.76788 29.5146 10.521 30.2194C10.8901 30.5648 11.3533 30.5444 11.8235 30.5444H14.0053C14.3294 30.5444 14.9044 30.6538 15.1754 30.4445C15.6452 30.0816 15.1837 29.5884 14.7533 29.5528C13.7453 29.4696 12.7102 29.5657 11.6988 29.5467C11.3454 29.5401 10.9579 29.2762 11.2019 28.8756C11.3422 28.6452 11.6538 28.6747 11.8859 28.6743H13.6312H18.7428H20.0518C20.2538 28.6744 20.4939 28.6456 20.6659 28.7743C21.0168 29.0367 20.8162 29.496 20.4256 29.5402C19.4942 29.6458 18.4961 29.5467 17.5584 29.547C17.3041 29.5472 16.99 29.5168 16.7726 29.6773C16.5037 29.8757 16.5235 30.3151 16.8171 30.4803C17.1018 30.6406 17.6149 30.5444 17.9324 30.5444H20.1765C20.6517 30.5444 21.1021 30.5617 21.474 30.2122C22.2305 29.501 21.9116 27.8539 20.7998 27.7393C20.7998 27.3675 20.8377 26.9716 20.7024 26.6173C20.2457 25.4219 18.3754 25.8069 17.3714 25.8069V19.9474C17.3714 19.4689 17.6173 18.1532 16.8729 18.1532C16.1454 18.1532 16.374 19.4882 16.374 19.9474V25.8069H15.5636V8.10364H16.374V15.0852C16.374 15.5378 16.2484 16.218 16.4369 16.637C16.5593 16.9093 16.9214 17.033 17.1702 16.8466C17.4076 16.6687 17.3712 16.3448 17.3714 16.0826V14.1502V9.84903C17.3714 9.21464 17.237 8.40734 17.3912 7.79196C17.4812 7.43278 17.8589 7.20757 17.9947 6.85693C19.6569 7.2009 21.2622 7.80935 22.9192 8.17888C23.2977 8.26328 24.0303 8.26278 24.3269 8.51505C24.4778 8.6434 24.5346 8.87149 24.6318 9.03867C24.7008 9.15742 24.8036 9.2748 24.8314 9.41268C24.8709 9.60842 24.7316 9.80627 24.6494 9.9737C24.457 10.3659 24.2813 10.7657 24.0884 11.1581C23.5205 12.3132 23.0084 13.4958 22.436 14.6489C22.2363 15.0511 22.0981 15.5179 21.8376 15.8863C21.6255 16.1864 21.1626 16.1076 20.8622 16.2838C20.1912 16.6773 20.0304 17.7457 20.4348 18.3887C20.6005 18.6522 20.8666 18.8587 21.1738 18.9257C21.3794 18.9704 21.6567 18.8943 21.8244 19.0499C22.041 19.251 22.115 19.7424 22.249 20.0097C22.5498 20.6097 22.9942 21.1734 23.5426 21.5656C25.5691 23.0146 28.3811 22.7028 29.927 20.6954C30.3092 20.199 30.6557 19.5855 30.7112 18.95C31.7746 18.9274 32.231 17.8282 31.8872 16.8929C31.7623 16.5533 31.4876 16.3004 31.1475 16.1829C30.8517 16.0807 30.5491 16.1199 30.3591 15.8296C29.9672 15.2309 29.7213 14.4854 29.4158 13.8385C28.7671 12.4652 28.0976 11.1017 27.4555 9.7253C27.2558 9.2973 27.6537 9.0641 27.778 8.66466C27.9448 8.12857 27.8443 7.50422 27.5255 7.04637C27.0017 6.29404 25.8376 6.14004 25.101 6.65746C24.8373 6.84266 24.6184 7.37756 24.2879 7.39813C23.6901 7.4354 22.9901 7.14529 22.4205 6.99101C21.2151 6.66456 20.0042 6.35151 18.8051 6.00227C18.1976 5.82533 18.3209 5.36834 18.1135 4.8622C17.947 4.45572 17.4948 4.15418 17.3912 3.74016C17.2232 3.06895 17.6089 2.27471 17.0889 1.69637C16.5393 1.08522 15.0001 1.22399 14.6618 1.995C14.408 2.57351 14.776 3.31184 14.5023 3.86483C14.3776 4.11648 14.1379 4.31146 13.9872 4.55052C13.7304 4.95807 13.6411 5.44606 13.6312 5.9219Z" fill="#0C1F31"/>
<path d="M15.5635 3.49065H16.3739C16.3739 3.20336 16.4681 2.71773 16.3363 2.45799C16.2269 2.24252 15.7105 2.24252 15.6011 2.45799C15.4693 2.71773 15.5635 3.20336 15.5635 3.49065ZM15.6259 4.52101C13.997 4.89755 14.6412 7.44359 16.2492 7.07313C17.5032 6.78421 17.6695 4.90228 16.3739 4.5278C16.146 4.46193 15.8559 4.46783 15.6259 4.52101ZM5.6531 7.39933C4.78209 7.69717 5.19548 9.07342 6.08829 8.80113C7.02169 8.51651 6.54919 7.09289 5.6531 7.39933ZM25.9114 7.39622C24.983 7.68595 25.4408 9.10795 26.3466 8.7982C27.2181 8.50024 26.7972 7.1197 25.9114 7.39622ZM2.66008 16.0824H9.08063C8.90017 15.4559 8.53464 14.8633 8.25662 14.2747C7.76654 13.2372 7.3017 12.1848 6.78962 11.1579C6.58746 10.7525 6.34685 9.69029 5.72779 9.86875C5.54111 9.92255 5.46639 10.1267 5.38764 10.2853C5.21393 10.635 5.06321 10.9952 4.88877 11.3449C4.1149 12.8966 3.3265 14.4818 2.66008 16.0824ZM22.9191 16.0824H29.3397C28.6732 14.4818 27.8848 12.8966 27.111 11.3449C26.9366 10.9952 26.7858 10.635 26.6121 10.2853C26.5334 10.1268 26.4586 9.92255 26.2719 9.86875C25.6529 9.69029 25.4123 10.7525 25.2101 11.1579C24.698 12.1848 24.2332 13.2372 23.7431 14.2747C23.4651 14.8633 23.0996 15.4559 22.9191 16.0824ZM1.29524 17.1155C0.950076 17.2255 0.87422 17.7658 1.23315 17.9149C1.42994 17.9965 1.70344 17.9525 1.91206 17.9525H3.40811H8.45728H10.0157C10.2067 17.9525 10.5068 18.004 10.6551 17.8526C10.8576 17.6456 10.7694 17.2343 10.5107 17.126C10.0625 16.9385 9.31314 17.0798 8.83129 17.0798H3.65745H2.09906C1.84461 17.0798 1.5408 17.0372 1.29524 17.1155ZM21.4891 17.126C21.1742 17.2578 21.1319 17.831 21.4922 17.9327C21.717 17.9961 22.0016 17.9525 22.2334 17.9525H23.7295H28.5916H30.2123C30.4171 17.9525 30.7036 17.9984 30.871 17.8526C31.0936 17.6587 31.0231 17.2548 30.76 17.1355C30.3507 16.9498 29.6582 17.0798 29.215 17.0798H23.7918H22.2334C22.0019 17.0798 21.7074 17.0346 21.4891 17.126ZM2.28607 18.9498C2.63342 19.8452 3.15477 20.6168 4.03146 21.0704C5.95505 22.0657 8.49474 21.0919 9.08063 18.9498H2.28607ZM22.9191 18.9498C23.505 21.0919 26.0447 22.0657 27.9683 21.0704C28.845 20.6168 29.3663 19.8452 29.7137 18.9498H22.9191ZM12.1351 27.6768H19.8023C19.8023 27.3946 19.874 26.9728 19.5493 26.8417C19.1174 26.6673 18.3954 26.8041 17.9323 26.8041H14.1921H13.0078C12.8144 26.8041 12.5712 26.7678 12.3881 26.8417C12.0634 26.9728 12.1351 27.3946 12.1351 27.6768Z" fill="#D9D9D9"/>
  </symbol>

  <symbol id="search-icon-third">
<path d="M19.5 19L16.0001 15.5M18.5 9.5C18.5 14.1944 14.6944 18 10 18C5.30558 18 1.5 14.1944 1.5 9.5C1.5 4.80558 5.30558 1 10 1C14.6944 1 18.5 4.80558 18.5 9.5Z" stroke="white" stroke-width="2" stroke-linecap="round" stroke-linejoin="round"/>
  </symbol>

  <symbol id="phone">
<path d="M6.95059 7.29866C7.64659 8.74828 8.59537 10.1069 9.79695 11.3085C10.9985 12.5101 12.3572 13.4589 13.8068 14.1549C13.9315 14.2147 13.9938 14.2447 14.0727 14.2677C14.3531 14.3494 14.6973 14.2907 14.9348 14.1207C15.0016 14.0728 15.0587 14.0157 15.173 13.9014C15.5226 13.5518 15.6975 13.377 15.8732 13.2627C16.5361 12.8317 17.3907 12.8317 18.0536 13.2627C18.2294 13.377 18.4042 13.5518 18.7538 13.9014L18.9486 14.0962C19.4801 14.6277 19.7458 14.8934 19.8902 15.1788C20.1772 15.7463 20.1772 16.4166 19.8902 16.9842C19.7458 17.2695 19.4801 17.5353 18.9486 18.0667L18.791 18.2243C18.2614 18.754 17.9966 19.0188 17.6365 19.221C17.237 19.4455 16.6165 19.6068 16.1583 19.6054C15.7454 19.6042 15.4632 19.5241 14.8987 19.3639C11.8653 18.5029 9.00295 16.8785 6.61497 14.4905C4.22699 12.1025 2.60252 9.24014 1.74155 6.20675C1.58134 5.6423 1.50124 5.36008 1.50001 4.94713C1.49864 4.48891 1.66001 3.86842 1.88443 3.46891C2.08668 3.10888 2.35149 2.84407 2.88111 2.31445L3.03874 2.15681C3.57019 1.62537 3.83591 1.35965 4.12129 1.2153C4.68885 0.928232 5.35912 0.928232 5.92668 1.2153C6.21206 1.35965 6.47778 1.62537 7.00922 2.15681L7.20409 2.35168C7.5537 2.70129 7.7285 2.87609 7.84279 3.05187C8.27378 3.71476 8.27378 4.56934 7.84278 5.23223C7.7285 5.40801 7.5537 5.58281 7.20409 5.93242C7.08978 6.04673 7.03262 6.10388 6.98478 6.1707C6.81477 6.40813 6.75607 6.75239 6.83779 7.03274C6.86079 7.11163 6.89072 7.17397 6.95059 7.29866Z" stroke="white" stroke-width="2" stroke-linecap="round" stroke-linejoin="round"/>
  </symbol>


  <symbol id="location">
<path d="M9.10547 12C10.7623 12 12.1055 10.6569 12.1055 9C12.1055 7.34315 10.7623 6 9.10547 6C7.44861 6 6.10547 7.34315 6.10547 9C6.10547 10.6569 7.44861 12 9.10547 12Z" stroke="white" stroke-width="2" stroke-linecap="round" stroke-linejoin="round"/>
<path d="M9.10547 21C13.1055 17 17.1055 13.4183 17.1055 9C17.1055 4.58172 13.5237 1 9.10547 1C4.68719 1 1.10547 4.58172 1.10547 9C1.10547 13.4183 5.10547 17 9.10547 21Z" stroke="white" stroke-width="2" stroke-linecap="round" stroke-linejoin="round"/>
  </symbol>

  <symbol id="youtube">
<path d="M7.41986 2.7998L9.07689 8.78444V11.6555H10.5115V8.78444L12.1904 2.7998H10.7449L10.1433 5.52324C9.97436 6.31844 9.86646 6.88344 9.81699 7.22038H9.77324C9.70324 6.74904 9.59441 6.17964 9.44694 5.5123L8.86725 2.7998H7.41986ZM13.8639 5.0584C13.3776 5.0584 12.9849 5.15411 12.6863 5.34824C12.3867 5.54144 12.1673 5.85059 12.0264 6.27246C11.8864 6.69526 11.8149 7.25328 11.8149 7.94954V8.88835C11.8149 9.57715 11.8776 10.13 12.0008 10.5454C12.124 10.9607 12.3303 11.2672 12.6225 11.4641C12.9146 11.6611 13.3177 11.7603 13.8311 11.7613C14.3304 11.7613 14.7284 11.6637 15.0196 11.4696C15.3108 11.2755 15.5224 10.9717 15.6521 10.5527C15.7819 10.1336 15.8472 9.5799 15.8472 8.89017V7.94954C15.8472 7.25328 15.7801 6.697 15.6467 6.27793C15.5132 5.8598 15.3035 5.55064 15.0141 5.35371C14.7257 5.15678 14.3417 5.0584 13.8639 5.0584ZM16.6019 5.186V10.0186C16.6019 10.6168 16.7047 11.0574 16.9081 11.3383C17.1125 11.6193 17.4285 11.7594 17.8579 11.7594C18.4767 11.7594 18.9417 11.4608 19.2506 10.8626H19.2816L19.4092 11.6537H20.5485V5.186H19.0938V10.323C19.0378 10.4434 18.9516 10.5427 18.835 10.6201C18.7183 10.6985 18.5973 10.7368 18.4704 10.7368C18.322 10.7368 18.2167 10.674 18.1532 10.5508C18.0897 10.4276 18.0584 10.224 18.0584 9.9347V5.186H16.6019ZM13.8311 6.061C14.0345 6.061 14.1792 6.16899 14.2594 6.38366C14.3406 6.59739 14.3798 6.93605 14.3798 7.40085V9.41699C14.3798 9.89579 14.3397 10.2397 14.2594 10.4506C14.1792 10.6615 14.0354 10.7668 13.8329 10.7678C13.6294 10.7678 13.4874 10.6615 13.41 10.4506C13.3316 10.2397 13.2933 9.89486 13.2933 9.41699V7.40085C13.2933 6.93698 13.3352 6.59833 13.4154 6.38366C13.4957 6.16993 13.6341 6.061 13.8311 6.061ZM6.56673 12.9735C5.2778 12.9735 4.2334 14.0179 4.2334 15.3068V22.7735C4.2334 24.0624 5.2778 25.1068 6.56673 25.1068H22.4334C23.7223 25.1068 24.7667 24.0624 24.7667 22.7735V15.3068C24.7667 14.0179 23.7223 12.9735 22.4334 12.9735H6.56673ZM14.5548 15.1191H15.7396V17.9975H15.7488C15.8552 17.7893 16.0067 17.6222 16.2027 17.4943C16.3987 17.3665 16.6112 17.3029 16.837 17.3029C17.1282 17.3029 17.3554 17.3804 17.5206 17.5344C17.6858 17.6884 17.8078 17.9393 17.8816 18.2837C17.9553 18.629 17.9928 19.107 17.9928 19.7183V20.5805C17.9928 21.3944 17.8953 21.9925 17.6993 22.3761C17.5033 22.7597 17.1959 22.9521 16.7805 22.9521C16.5491 22.9521 16.3384 22.8981 16.148 22.7917C15.9576 22.6853 15.8166 22.539 15.7214 22.3542H15.6941L15.5701 22.8701H14.5548V15.1191ZM7.20475 15.3962H10.8488V16.386H9.62741V22.8701H8.42428V16.386H7.20475V15.3962ZM20.2094 17.3066C20.6304 17.3066 20.9552 17.3823 21.1811 17.5363C21.406 17.6912 21.5663 17.9324 21.6587 18.2581C21.7501 18.5848 21.7954 19.0367 21.7954 19.6126V20.5495H19.7391V20.8266C19.7391 21.1776 19.7487 21.4396 19.7701 21.6141C19.7916 21.7887 19.8342 21.9176 19.8995 21.9969C19.9649 22.0772 20.0659 22.1173 20.2021 22.1173C20.386 22.1173 20.5122 22.0458 20.5813 21.904C20.6494 21.7621 20.6869 21.5235 20.6925 21.1912L21.7516 21.2532C21.7572 21.2999 21.7607 21.367 21.7607 21.4501C21.7607 21.955 21.6232 22.332 21.3469 22.5803C21.0707 22.8304 20.6797 22.9558 20.1748 22.9558C19.5691 22.9558 19.1451 22.7651 18.9006 22.3852C18.6561 22.0054 18.536 21.4168 18.536 20.6206V19.6673C18.536 18.8478 18.6632 18.2497 18.9152 17.8717C19.1672 17.4937 19.5981 17.3066 20.2094 17.3066ZM12.586 17.4068H13.8165V22.8683H13.8128V22.8701H12.8503L12.7446 22.2011H12.7173C12.4559 22.707 12.0641 22.9594 11.5415 22.9594C11.1784 22.9594 10.9121 22.842 10.7394 22.604C10.5667 22.3669 10.4805 21.9942 10.4805 21.4902V17.4087H11.7128V21.4191C11.7128 21.6617 11.7398 21.8378 11.793 21.9404C11.8472 22.045 11.935 22.0954 12.061 22.0954C12.1674 22.0954 12.2693 22.0632 12.3673 21.9969C12.4662 21.9316 12.5375 21.848 12.586 21.7472V17.4068ZM20.1839 18.136C20.0533 18.136 19.9548 18.1743 19.8923 18.2508C19.8297 18.3283 19.7879 18.4545 19.7683 18.63C19.7468 18.8045 19.7373 19.071 19.7373 19.4266V19.8186H20.636V19.4266C20.636 19.0757 20.6247 18.8111 20.6014 18.63C20.578 18.448 20.5363 18.3219 20.4738 18.2472C20.4112 18.1735 20.3155 18.136 20.1839 18.136ZM16.2829 18.1761C16.1643 18.1761 16.0537 18.2231 15.9529 18.3183C15.8521 18.4135 15.7807 18.5354 15.7396 18.6829V21.7837C15.7938 21.8789 15.8634 21.9493 15.9493 21.9969C16.0352 22.0436 16.1283 22.0699 16.23 22.0699C16.3607 22.0699 16.4643 22.0229 16.5417 21.9277C16.6192 21.8325 16.6741 21.6723 16.7058 21.4464C16.7385 21.2215 16.755 20.9089 16.755 20.5113V19.8076C16.755 19.3801 16.742 19.0502 16.7149 18.8178C16.6888 18.5863 16.6399 18.4208 16.5727 18.3238C16.5046 18.2267 16.4089 18.1761 16.2829 18.1761Z" fill="white"/>
  </symbol>

  <symbol id="twitter">
<path d="M26.6338 6.4744C25.7406 6.87107 24.7811 7.138 23.7741 7.2584C24.8026 6.6424 25.5913 5.66707 25.9627 4.50414C25.0014 5.0744 23.9355 5.4888 22.8006 5.7128C21.8925 4.74494 20.5989 4.14014 19.1671 4.14014C16.4175 4.14014 14.1887 6.36987 14.1887 9.11854C14.1887 9.50867 14.2335 9.88947 14.3175 10.2525C10.1801 10.0453 6.51208 8.06294 4.05554 5.05014C3.62808 5.7856 3.38261 6.64054 3.38261 7.55427C3.38261 9.28094 4.26088 10.8051 5.59648 11.6973C4.78074 11.6712 4.01261 11.4472 3.34154 11.0748C3.34154 11.0963 3.34154 11.1159 3.34154 11.1373C3.34154 13.55 5.05701 15.5623 7.33528 16.0187C6.91808 16.1325 6.47754 16.1932 6.02301 16.1932C5.70288 16.1932 5.39021 16.1615 5.08688 16.1045C5.72061 18.0823 7.55928 19.5224 9.73768 19.5625C8.03434 20.8981 5.88768 21.6943 3.55434 21.6943C3.15301 21.6943 2.75634 21.6709 2.36621 21.6243C4.56981 23.0364 7.18594 23.8605 9.99808 23.8605C19.1559 23.8605 24.1623 16.2744 24.1623 9.69534C24.1623 9.47974 24.1577 9.26507 24.1483 9.05134C25.1218 8.34854 25.9665 7.47214 26.6338 6.4744Z" fill="white"/>
  </symbol>

  <symbol id="linkedin">
<path d="M22.9001 3.7334H6.10007C5.06873 3.7334 4.2334 4.56873 4.2334 5.60007V22.4001C4.2334 23.4314 5.06873 24.2667 6.10007 24.2667H22.9001C23.9314 24.2667 24.7667 23.4314 24.7667 22.4001V5.60007C24.7667 4.56873 23.9314 3.7334 22.9001 3.7334ZM10.7238 20.5334H7.97046V11.6742H10.7238V20.5334ZM9.31913 10.4077C8.43153 10.4077 7.7138 9.68807 7.7138 8.80233C7.7138 7.9166 8.43247 7.19793 9.31913 7.19793C10.2039 7.19793 10.9235 7.91753 10.9235 8.80233C10.9235 9.68807 10.2039 10.4077 9.31913 10.4077ZM21.0371 20.5334H18.2857V16.2251C18.2857 15.1975 18.267 13.8759 16.8549 13.8759C15.4222 13.8759 15.2019 14.995 15.2019 16.1505V20.5334H12.4505V11.6742H15.0918V12.8847H15.1291C15.4969 12.1885 16.3947 11.4539 17.7341 11.4539C20.5219 11.4539 21.0371 13.2889 21.0371 15.6745V20.5334Z" fill="white"/>
  </symbol>

  <symbol id="facebook">
<path d="M22.9001 3.7334H6.10007C5.06873 3.7334 4.2334 4.56873 4.2334 5.60007V22.4001C4.2334 23.4314 5.06873 24.2667 6.10007 24.2667H15.4334V15.8667H12.6334V13.0667H15.4334V11.5631C15.4334 8.71646 16.8203 7.46673 19.1863 7.46673C20.3194 7.46673 20.9186 7.55073 21.2023 7.589V10.2667H19.5886C18.5843 10.2667 18.2334 10.7969 18.2334 11.8702V13.0667H21.1771L20.7777 15.8667H18.2334V24.2667H22.9001C23.9314 24.2667 24.7667 23.4314 24.7667 22.4001V5.60007C24.7667 4.56873 23.9305 3.7334 22.9001 3.7334Z" fill="white"/>
  </symbol>

  <symbol id="instagram">
<path d="M6.10007 3.7334C5.06873 3.7334 4.2334 4.56873 4.2334 5.60007V22.4001C4.2334 23.4314 5.06873 24.2667 6.10007 24.2667H22.9001C23.9314 24.2667 24.7667 23.4314 24.7667 22.4001V5.60007C24.7667 4.56873 23.9314 3.7334 22.9001 3.7334H6.10007ZM6.10007 5.60007H22.9001V11.2001H19.8576C18.6768 9.50879 16.7192 8.40006 14.5001 8.40006C12.2809 8.40006 10.3233 9.50879 9.14251 11.2001H6.10007V5.60007ZM20.1001 7.46673V9.3334H21.9667V7.46673H20.1001ZM14.5001 10.2667C17.0733 10.2667 19.1667 12.3602 19.1667 14.9334C19.1667 17.5066 17.0733 19.6001 14.5001 19.6001C11.9269 19.6001 9.8334 17.5066 9.8334 14.9334C9.8334 12.3602 11.9269 10.2667 14.5001 10.2667ZM14.5001 12.1334C14.0679 12.1334 13.6646 12.2396 13.2988 12.4141C13.464 12.5821 13.5667 12.8119 13.5667 13.0667C13.5667 13.5819 13.1486 14.0001 12.6334 14.0001C12.3786 14.0001 12.1488 13.8973 11.9808 13.7321C11.8063 14.098 11.7001 14.5013 11.7001 14.9334C11.7001 16.4799 12.9535 17.7334 14.5001 17.7334C16.0466 17.7334 17.3001 16.4799 17.3001 14.9334C17.3001 13.3869 16.0466 12.1334 14.5001 12.1334Z" fill="white"/>
  </symbol>

<symbol id="hamburger">
<path d="M1 7H19M1 1H19M7 13H19" stroke="white" stroke-width="2" stroke-linecap="round" stroke-linejoin="round"/>
</symbol>

<symbol id="close">
<path xmlns="http://www.w3.org/2000/svg" d="M15 1L1 15M1 1L15 15" stroke="white" stroke-width="2" stroke-linecap="round" stroke-linejoin="round"/>
</symbol>

<symbol id="hamburer-close">
<path d="M15 1L1 15M1 1L15 15" stroke="#FFCC00" stroke-width="2" stroke-linecap="round" stroke-linejoin="round"/>
</symbol>

<symbol id="accordion-arrow">
<path d="M4.31885 5.84619L0.334473 1.86182C0.059082 1.58643 0.059082 1.14111 0.334473 0.868652L0.996582 0.206543C1.27197 -0.0688477 1.71729 -0.0688477 1.98975 0.206543L4.81396 3.03076L7.63818 0.206543C7.91357 -0.0688477 8.35889 -0.0688477 8.63135 0.206543L9.29346 0.868652C9.56885 1.14404 9.56885 1.58936 9.29346 1.86182L5.30908 5.84619C5.03955 6.12158 4.59424 6.12158 4.31885 5.84619Z"/>
</symbol>

<symbol id="question-mark">
<path d="M30 16C30 12.287 28.525 8.72601 25.8995 6.1005C23.274 3.475 19.713 2 16 2C12.287 2 8.72601 3.475 6.1005 6.1005C3.475 8.72601 2 12.287 2 16C2 19.713 3.475 23.274 6.1005 25.8995C8.72601 28.525 12.287 30 16 30C19.713 30 23.274 28.525 25.8995 25.8995C28.525 23.274 30 19.713 30 16ZM0 16C0 11.7565 1.68571 7.68687 4.68629 4.68629C7.68687 1.68571 11.7565 0 16 0C20.2435 0 24.3131 1.68571 27.3137 4.68629C30.3143 7.68687 32 11.7565 32 16C32 20.2435 30.3143 24.3131 27.3137 27.3137C24.3131 30.3143 20.2435 32 16 32C11.7565 32 7.68687 30.3143 4.68629 27.3137C1.68571 24.3131 0 20.2435 0 16ZM10.5437 10.6125C10.95 9.075 12.3375 8 13.9312 8H17.5C19.7188 8 21.5 9.8125 21.5 12.0188C21.5 13.5188 20.6625 14.9062 19.3188 15.5938L17 16.7687V18C17 18.55 16.55 19 16 19C15.45 19 15 18.55 15 18V16.1562C15 15.7812 15.2125 15.4375 15.5437 15.2625L18.4062 13.8C19.075 13.4625 19.5 12.7625 19.5 12.0063C19.5 10.8938 18.6 9.9875 17.5 9.9875H13.9312C13.25 9.9875 12.65 10.45 12.4812 11.1062L12.4688 11.15C12.3312 11.6812 11.7812 12.0063 11.25 11.8625C10.7188 11.7188 10.3938 11.175 10.5375 10.6438L10.55 10.6L10.5437 10.6125ZM14.5 22C14.5 21.6022 14.658 21.2206 14.9393 20.9393C15.2206 20.658 15.6022 20.5 16 20.5C16.3978 20.5 16.7794 20.658 17.0607 20.9393C17.342 21.2206 17.5 21.6022 17.5 22C17.5 22.3978 17.342 22.7794 17.0607 23.0607C16.7794 23.342 16.3978 23.5 16 23.5C15.6022 23.5 15.2206 23.342 14.9393 23.0607C14.658 22.7794 14.5 22.3978 14.5 22Z" fill="#0C1F31"/>
</symbol>

<symbol id="information">
<path d="M23.6667 35H5.00001C3.70939 35 2.66668 33.9573 2.66668 32.6667V4.66667C2.66668 3.37604 3.70939 2.33333 5.00001 2.33333H14.3333V10.5C14.3333 12.4323 15.9011 14 17.8333 14H26V32.6667C26 33.9573 24.9573 35 23.6667 35ZM17.8333 11.6667C17.1917 11.6667 16.6667 11.1417 16.6667 10.5V2.36979C16.8708 2.42083 17.0604 2.52292 17.2063 2.67604L25.6573 11.1271C25.8104 11.2802 25.9125 11.4625 25.9636 11.6667H17.8333ZM5.00001 0C2.42605 0 0.333344 2.09271 0.333344 4.66667V32.6667C0.333344 35.2406 2.42605 37.3333 5.00001 37.3333H23.6667C26.2406 37.3333 28.3333 35.2406 28.3333 32.6667V11.951C28.3333 11.025 27.9615 10.1354 27.3052 9.47917L18.8615 1.02812C18.2052 0.371875 17.3156 0 16.3896 0H5.00001ZM5.00001 5.83333C5.00001 6.475 5.52501 7 6.16668 7H10.8333C11.475 7 12 6.475 12 5.83333C12 5.19167 11.475 4.66667 10.8333 4.66667H6.16668C5.52501 4.66667 5.00001 5.19167 5.00001 5.83333ZM5.00001 10.5C5.00001 11.1417 5.52501 11.6667 6.16668 11.6667H10.8333C11.475 11.6667 12 11.1417 12 10.5C12 9.85833 11.475 9.33333 10.8333 9.33333H6.16668C5.52501 9.33333 5.00001 9.85833 5.00001 10.5ZM16.6667 31.5C16.6667 32.1417 17.1917 32.6667 17.8333 32.6667H22.5C23.1417 32.6667 23.6667 32.1417 23.6667 31.5C23.6667 30.8583 23.1417 30.3333 22.5 30.3333H17.8333C17.1917 30.3333 16.6667 30.8583 16.6667 31.5ZM21.3333 24.5H7.33334V19.8333H21.3333V24.5ZM7.33334 17.5C6.04272 17.5 5.00001 18.5427 5.00001 19.8333V24.5C5.00001 25.7906 6.04272 26.8333 7.33334 26.8333H21.3333C22.624 26.8333 23.6667 25.7906 23.6667 24.5V19.8333C23.6667 18.5427 22.624 17.5 21.3333 17.5H7.33334Z" fill="#0C1F31"/>
</symbol>

<symbol id="info">
<path xmlns="http://www.w3.org/2000/svg" d="M20.6622 8C20.6622 7.65625 20.631 7.325 20.581 7H18.7002C17.7691 7 16.8818 6.63125 16.2257 5.975L15.8321 5.58125C14.6261 7.09375 12.789 8 10.8082 8H8.6649V9C8.6649 12.3125 11.3518 15 14.6636 15C17.9753 15 20.6622 12.3125 20.6622 9V8ZM14.6636 0C19.0813 0 22.6618 3.58125 22.6618 8C22.6618 10.2062 23.699 12.275 25.4612 13.6L25.7298 13.8C26.3172 14.2438 26.6609 14.9312 26.6609 15.6687C26.6609 16.9562 25.6174 18 24.3302 18H20.6622C20.1123 18 19.6624 17.55 19.6624 17C19.6624 16.45 20.1123 16 20.6622 16H24.3302C24.5114 16 24.6613 15.85 24.6613 15.6687C24.6613 15.5625 24.6113 15.4625 24.5301 15.4L24.2614 15.2C23.2741 14.4562 22.4618 13.5313 21.862 12.4875C20.5685 15.1625 17.8316 17 14.6636 17C11.4955 17 8.75863 15.1625 7.46517 12.4875C6.8653 13.5313 6.05298 14.4562 5.06571 15.2L4.79702 15.4C4.71578 15.4625 4.66579 15.5625 4.66579 15.6687C4.66579 15.85 4.81576 16 4.99697 16H8.6649C9.21478 16 9.66468 16.45 9.66468 17C9.66468 17.55 9.21478 18 8.6649 18H4.99697C3.70976 18 2.66624 16.9562 2.66624 15.6687C2.66624 14.9312 3.00991 14.2438 3.59728 13.8L3.86597 13.6C5.62808 12.275 6.66535 10.2062 6.66535 8C6.66535 3.58125 10.2458 0 14.6636 0ZM14.9572 3.29375C15.3447 2.90625 15.982 2.90625 16.3694 3.29375L17.6379 4.5625C17.9191 4.84375 18.3003 5 18.7002 5H19.8624C18.8251 3.20625 16.8818 2 14.6636 2C12.0516 2 9.82714 3.66875 9.00858 6H10.8144C12.4828 6 14.0137 5.0625 14.7635 3.56875C14.8135 3.46875 14.876 3.375 14.9572 3.2875V3.29375ZM11.9392 29.8687L8.4587 22.325C5.13444 23.3063 2.70373 26.3688 2.66624 30H12.0017C11.9829 29.9563 11.9579 29.9125 11.9392 29.8687ZM26.6609 30C26.6234 26.3688 24.1927 23.3063 20.8684 22.325L17.388 29.8687C17.3692 29.9125 17.3442 29.9563 17.3255 30H26.6609ZM8.90235 20.1688C9.32725 20.0875 9.73966 20.325 9.92087 20.7188L11.9204 25.0625L13.2764 21H12.664C12.1141 21 11.6642 20.55 11.6642 20C11.6642 19.45 12.1141 19 12.664 19H14.6636H16.6631C17.213 19 17.6629 19.45 17.6629 20C17.6629 20.55 17.213 21 16.6631 21H16.0508L17.4067 25.0625L19.4125 20.7188C19.5937 20.325 20.0061 20.0938 20.431 20.1688C25.1175 21.0313 28.6667 25.1437 28.6667 30.0812C28.6667 31.1437 27.8044 32 26.7484 32H2.58501C1.52899 32 0.666687 31.1375 0.666687 30.0812C0.666687 25.1437 4.21589 21.0375 8.90235 20.1688ZM16.182 27.7125L14.6636 23.1625L13.1452 27.7125L13.7513 29.0312C14.1074 29.8062 15.2072 29.8062 15.5696 29.0312L16.1757 27.7125H16.182Z" fill="#0C1F31"/>
</symbol>

<symbol id="calender">
<g clip-path="url(#clip0_1_5898)">
<path d="M7.66669 0C8.21669 0 8.66669 0.45 8.66669 1V4H20.6667V1C20.6667 0.45 21.1167 0 21.6667 0C22.2167 0 22.6667 0.45 22.6667 1V4H24.6667C26.8729 4 28.6667 5.79375 28.6667 8V10V12V28C28.6667 30.2062 26.8729 32 24.6667 32H4.66669C2.46044 32 0.666687 30.2062 0.666687 28V12V10V8C0.666687 5.79375 2.46044 4 4.66669 4H6.66669V1C6.66669 0.45 7.11669 0 7.66669 0ZM26.6667 12H2.66669V28C2.66669 29.1063 3.56044 30 4.66669 30H24.6667C25.7729 30 26.6667 29.1063 26.6667 28V12ZM24.6667 6H4.66669C3.56044 6 2.66669 6.89375 2.66669 8V10H26.6667V8C26.6667 6.89375 25.7729 6 24.6667 6ZM6.66669 23C6.66669 22.45 7.11669 22 7.66669 22H15.6667C16.2167 22 16.6667 22.45 16.6667 23C16.6667 23.55 16.2167 24 15.6667 24H7.66669C7.11669 24 6.66669 23.55 6.66669 23ZM7.66669 16H21.6667C22.2167 16 22.6667 16.45 22.6667 17C22.6667 17.55 22.2167 18 21.6667 18H7.66669C7.11669 18 6.66669 17.55 6.66669 17C6.66669 16.45 7.11669 16 7.66669 16Z" fill="#0C1F31"/>
</g>
</symbol>

<symbol id="resources">
<g clip-path="url(#clip0_1_5906)">
<path d="M5.6 4.90468C5.6 2.38325 4.34437 0.333252 2.8 0.333252C1.25563 0.333252 0 2.38325 0 4.90468V20.3475C0 22.469 0.51625 24.5047 1.435 26.0047L5.10562 31.9975C5.37687 32.4404 5.82313 32.4404 6.09438 31.9975C6.36563 31.5547 6.36563 30.8261 6.09438 30.3833L2.42375 24.3904C1.7675 23.319 1.4 21.8618 1.4 20.3475V4.90468C1.4 3.64039 2.02562 2.61897 2.8 2.61897C3.57437 2.61897 4.2 3.64039 4.2 4.90468V13.7833C4.2 15.719 4.6725 17.5761 5.50812 18.9404L5.97625 19.7118L7.90125 22.8547L8.60125 23.9975C8.8725 24.4404 9.31875 24.4404 9.59 23.9975C9.86125 23.5547 9.86125 22.8261 9.59 22.3833L8.89 21.2404L6.965 18.0975C6.5625 17.4404 6.5625 16.369 6.965 15.7118C7.3675 15.0547 8.02375 15.0547 8.42625 15.7118L12.425 22.2333C12.985 23.1475 13.3 24.3904 13.3 25.6833V31.1904C13.3 31.819 13.615 32.3333 14 32.3333C14.385 32.3333 14.7 31.819 14.7 31.1904V25.6833C14.7 24.3904 15.015 23.1475 15.575 22.2333L19.5694 15.7118C19.9719 15.0547 20.6281 15.0547 21.0306 15.7118C21.4331 16.369 21.4331 17.4404 21.0306 18.0975L19.1056 21.2404L18.4056 22.3833C18.1344 22.8261 18.1344 23.5547 18.4056 23.9975C18.6769 24.4404 19.1231 24.4404 19.3944 23.9975L20.0944 22.8547L22.0194 19.7118L22.4919 18.9404C23.3319 17.569 23.8 15.719 23.8 13.7833V4.90468C23.8 3.64039 24.4256 2.61897 25.2 2.61897C25.9744 2.61897 26.6 3.64039 26.6 4.90468V20.3475C26.6 21.8618 26.2325 23.319 25.5762 24.3904L21.9056 30.3833C21.6344 30.8261 21.6344 31.5547 21.9056 31.9975C22.1769 32.4404 22.6231 32.4404 22.8944 31.9975L26.565 26.0047C27.4838 24.5047 28 22.469 28 20.3475V4.90468C28 2.38325 26.7444 0.333252 25.2 0.333252C23.6556 0.333252 22.4 2.38325 22.4 4.90468V13.7833C22.4 14.1118 22.3825 14.4333 22.3431 14.7475C22.2513 14.519 22.1419 14.2975 22.0194 14.0975C21.07 12.5475 19.53 12.5475 18.5806 14.0975L14.5862 20.619C14.3631 20.9833 14.1662 21.3761 14 21.8047C13.8337 21.3833 13.6369 20.9833 13.4138 20.619L9.41937 14.0975C8.47 12.5475 6.93 12.5475 5.98062 14.0975C5.85812 14.2975 5.74875 14.519 5.65688 14.7475C5.6175 14.4333 5.6 14.1118 5.6 13.7833V4.90468Z" fill="#0C1F31"/>
</g>
<defs>
<clipPath id="clip0_1_5906">
<rect width="28" height="32" fill="white" transform="translate(0 0.333313)"/>
</clipPath>
</defs>
</symbol>

<symbol id="form">
<path d="M4.33334 2.61903C3.22709 2.61903 2.33334 3.64046 2.33334 4.90474V27.7619C2.33334 29.0262 3.22709 30.0476 4.33334 30.0476H24.3333C25.4396 30.0476 26.3333 29.0262 26.3333 27.7619V4.90474C26.3333 3.64046 25.4396 2.61903 24.3333 2.61903H4.33334ZM0.333344 4.90474C0.333344 2.38331 2.12709 0.333313 4.33334 0.333313H24.3333C26.5396 0.333313 28.3333 2.38331 28.3333 4.90474V27.7619C28.3333 30.2833 26.5396 32.3333 24.3333 32.3333H4.33334C2.12709 32.3333 0.333344 30.2833 0.333344 27.7619V4.90474ZM6.83334 9.47617C6.83334 9.02151 6.99138 8.58548 7.27268 8.26399C7.55399 7.9425 7.93552 7.76188 8.33334 7.76188C8.73117 7.76188 9.1127 7.9425 9.394 8.26399C9.67531 8.58548 9.83334 9.02151 9.83334 9.47617C9.83334 9.93083 9.67531 10.3669 9.394 10.6884C9.1127 11.0098 8.73117 11.1905 8.33334 11.1905C7.93552 11.1905 7.55399 11.0098 7.27268 10.6884C6.99138 10.3669 6.83334 9.93083 6.83334 9.47617ZM12.3333 9.47617C12.3333 8.8476 12.7833 8.33331 13.3333 8.33331H21.3333C21.8833 8.33331 22.3333 8.8476 22.3333 9.47617C22.3333 10.1047 21.8833 10.619 21.3333 10.619H13.3333C12.7833 10.619 12.3333 10.1047 12.3333 9.47617ZM12.3333 16.3333C12.3333 15.7047 12.7833 15.1905 13.3333 15.1905H21.3333C21.8833 15.1905 22.3333 15.7047 22.3333 16.3333C22.3333 16.9619 21.8833 17.4762 21.3333 17.4762H13.3333C12.7833 17.4762 12.3333 16.9619 12.3333 16.3333ZM12.3333 23.1905C12.3333 22.5619 12.7833 22.0476 13.3333 22.0476H21.3333C21.8833 22.0476 22.3333 22.5619 22.3333 23.1905C22.3333 23.819 21.8833 24.3333 21.3333 24.3333H13.3333C12.7833 24.3333 12.3333 23.819 12.3333 23.1905ZM8.33334 18.0476C7.93552 18.0476 7.55399 17.867 7.27268 17.5455C6.99138 17.224 6.83334 16.788 6.83334 16.3333C6.83334 15.8787 6.99138 15.4426 7.27268 15.1211C7.55399 14.7996 7.93552 14.619 8.33334 14.619C8.73117 14.619 9.1127 14.7996 9.394 15.1211C9.67531 15.4426 9.83334 15.8787 9.83334 16.3333C9.83334 16.788 9.67531 17.224 9.394 17.5455C9.1127 17.867 8.73117 18.0476 8.33334 18.0476ZM6.83334 23.1905C6.83334 22.7358 6.99138 22.2998 7.27268 21.9783C7.55399 21.6568 7.93552 21.4762 8.33334 21.4762C8.73117 21.4762 9.1127 21.6568 9.394 21.9783C9.67531 22.2998 9.83334 22.7358 9.83334 23.1905C9.83334 23.6451 9.67531 24.0811 9.394 24.4026C9.1127 24.7241 8.73117 24.9047 8.33334 24.9047C7.93552 24.9047 7.55399 24.7241 7.27268 24.4026C6.99138 24.0811 6.83334 23.6451 6.83334 23.1905Z" fill="#0C1F31"/>
</symbol>

<symbol id="books">
<path d="M7.66688 26.3322V29.3318C7.66688 29.8818 7.27312 30.3317 6.79186 30.3317H3.29176C2.8105 30.3317 2.41674 29.8818 2.41674 29.3318V26.3322H7.66688ZM6.79186 32.3315C7.46453 32.3315 8.07705 32.044 8.54191 31.5691C9.00676 32.044 9.61928 32.3315 10.292 32.3315H13.7921C15.2413 32.3315 16.4171 30.9879 16.4171 29.3318V26.3322V25.3323V24.3324V12.4462L19.2281 24.8261L19.4469 25.7947L20.4313 30.1192C20.7922 31.7128 22.1814 32.6564 23.5322 32.2315L26.7916 31.2004C28.1425 30.7754 28.9409 29.1381 28.58 27.5445L27.8198 24.1887L27.601 23.22L24.1064 7.84677L23.8876 6.87813L22.9032 2.55362C22.5423 0.953807 21.1532 0.0101647 19.8024 0.435116L16.5429 1.46625C16.3515 1.52874 16.171 1.60998 16.0015 1.71622C15.5366 0.885065 14.7218 0.335128 13.7921 0.335128H10.292C9.61928 0.335128 9.00676 0.622595 8.54191 1.09754C8.07705 0.622595 7.46453 0.335128 6.79186 0.335128H3.29176C1.8425 0.335128 0.666687 1.67872 0.666687 3.33479V6.33444V7.33433V8.33421V24.3324V25.3323V26.3322V29.3318C0.666687 30.9879 1.8425 32.3315 3.29176 32.3315H6.79186ZM16.4171 4.38467V4.30342C16.4335 3.85348 16.696 3.49102 17.0078 3.39103L20.2672 2.3599C20.6282 2.24741 21.0766 2.48488 21.2079 3.04732L21.979 6.43443L17.2046 7.94676L16.4499 4.62214C16.4335 4.5409 16.4226 4.45966 16.4171 4.38467ZM14.6671 4.34717V6.33444H9.41693V3.33479C9.41693 2.78485 9.81069 2.3349 10.292 2.3349H13.7921C14.2733 2.3349 14.6671 2.78485 14.6671 3.33479V4.34717ZM10.292 30.3317C9.81069 30.3317 9.41693 29.8818 9.41693 29.3318V26.3322H14.6671V29.3318C14.6671 29.8818 14.2733 30.3317 13.7921 30.3317H10.292ZM7.66688 8.33421V24.3324H2.41674V8.33421H7.66688ZM7.66688 3.33479V6.33444H2.41674V3.33479C2.41674 2.78485 2.8105 2.3349 3.29176 2.3349H6.79186C7.27312 2.3349 7.66688 2.78485 7.66688 3.33479ZM14.6671 24.3324H9.41693V8.33421H14.6671V24.3324ZM22.4165 8.37796L25.6869 22.7826L20.9126 24.2949L17.6422 9.88404L22.4165 8.37171V8.37796ZM26.1299 24.7198L26.8846 28.0445C27.0159 28.6319 26.7096 29.1506 26.3213 29.2693L23.0618 30.3005C22.7009 30.4129 22.2524 30.1755 22.1212 29.613L21.3501 26.2259L26.1244 24.7136L26.1299 24.7198Z" fill="#0C1F31"/>
</symbol>

<symbol id="child">
<path d="M7.99762 4.97888C7.99762 4.44845 8.20834 3.93974 8.58341 3.56467C8.95848 3.1896 9.46718 2.97888 9.99761 2.97888C10.528 2.97888 11.0367 3.1896 11.4118 3.56467C11.7869 3.93974 11.9976 4.44845 11.9976 4.97888C11.9976 5.50931 11.7869 6.01802 11.4118 6.3931C11.0367 6.76817 10.528 6.97888 9.99761 6.97888C9.46718 6.97888 8.95848 6.76817 8.58341 6.3931C8.20834 6.01802 7.99762 5.50931 7.99762 4.97888ZM13.9976 4.97888C13.9976 3.91802 13.5762 2.9006 12.826 2.15045C12.0759 1.40031 11.0585 0.978882 9.99761 0.978882C8.93675 0.978882 7.91934 1.40031 7.1692 2.15045C6.41906 2.9006 5.99764 3.91802 5.99764 4.97888C5.99764 6.03975 6.41906 7.05716 7.1692 7.80731C7.91934 8.55745 8.93675 8.97888 9.99761 8.97888C11.0585 8.97888 12.0759 8.55745 12.826 7.80731C13.5762 7.05716 13.9976 6.03975 13.9976 4.97888ZM4.6164 15.9914C4.73515 15.7976 4.86015 15.6164 4.99765 15.4351V31.9789C4.99765 32.5289 5.44764 32.9789 5.99764 32.9789C6.54764 32.9789 6.99763 32.5289 6.99763 31.9789V24.9789H12.9976V31.9789C12.9976 32.5289 13.4476 32.9789 13.9976 32.9789C14.5476 32.9789 14.9976 32.5289 14.9976 31.9789V15.4351C15.1351 15.6101 15.2601 15.7976 15.3788 15.9914L18.1475 20.5039C18.435 20.9726 19.0538 21.1226 19.5225 20.8351C19.9913 20.5476 20.1413 19.9289 19.8538 19.4601L17.0851 14.9476C15.5726 12.4789 12.8913 10.9789 9.99761 10.9789C7.10388 10.9789 4.42265 12.4789 2.91016 14.9476L0.147686 19.4539C-0.139812 19.9226 0.00393662 20.5414 0.478933 20.8289C0.953929 21.1164 1.56642 20.9726 1.85392 20.4976L4.62265 15.9851L4.6164 15.9914ZM12.9976 22.9789H6.99763V13.7351C7.90388 13.2476 8.93512 12.9789 9.99761 12.9789C11.0601 12.9789 12.0913 13.2476 12.9976 13.7351V22.9789Z" fill="#0C1F31"/>
</symbol>

<symbol id="alternate">
<path d="M20.0409 0.748497C20.4285 1.13598 20.4285 1.77345 20.0409 2.16093L19.2471 2.95464L29.8361 13.5416L30.63 12.7479C31.0175 12.3604 31.6551 12.3604 32.0427 12.7479C32.4302 13.1354 32.4302 13.7729 32.0427 14.1603L30.5425 15.6603L24.5416 21.66L23.0414 23.1599C22.6538 23.5474 22.0162 23.5474 21.6287 23.1599C21.2411 22.7724 21.2411 22.135 21.6287 21.7475L22.4225 20.9538L11.8335 10.3668L11.0396 11.1605C10.652 11.548 10.0144 11.548 9.62689 11.1605C9.23934 10.773 9.23934 10.1355 9.62689 9.74806L11.1271 8.24813L17.128 2.24842L18.6282 0.748497C19.0158 0.361015 19.6534 0.361015 20.0409 0.748497ZM13.2462 8.95435L23.8352 19.5413L28.4234 14.9541L17.8343 4.36707L13.2462 8.95435ZM9.3331 20.4538L2.33207 27.4534L5.33251 30.4533L12.3335 23.4536L9.3331 20.4538ZM7.92039 19.0414C8.70176 18.2601 9.97069 18.2601 10.7521 19.0414L11.5459 19.8351L14.6589 16.7227L16.0716 18.1351L12.9586 21.2475L13.7525 22.0412C14.5339 22.8224 14.5339 24.0911 13.7525 24.8723L6.75147 31.872C5.97011 32.6532 4.70117 32.6532 3.91981 31.872L0.919367 28.8721C0.138002 28.0909 0.138002 26.8222 0.919367 26.041L7.92039 19.0414Z" fill="#0C1F31"/>
</symbol>

<symbol id="assistant">
<path d="M29.1995 0.664217C29.5482 1.05179 29.5482 1.68942 29.1995 2.07699L26.1283 5.49016C25.622 6.05277 24.9357 6.37158 24.2214 6.37158H17.7639C15.7782 6.37158 14.1639 8.16568 14.1639 10.3724V16.3735C14.1639 17.48 14.9682 18.3739 15.9639 18.3739C16.9595 18.3739 17.7639 17.48 17.7639 16.3735V10.8725C17.7639 10.3224 18.1689 9.87227 18.6639 9.87227C19.1589 9.87227 19.5639 10.3224 19.5639 10.8725V12.3728H25.8639C27.8495 12.3728 29.4639 14.1669 29.4639 16.3735C29.4639 17.9051 28.6932 19.2303 27.557 19.9055C27.6245 20.218 27.6639 20.5431 27.6639 20.8744C27.6639 22.7435 26.5108 24.3126 24.947 24.7564C24.7783 26.7881 23.237 28.3759 21.3639 28.3759H14.012C13.7757 28.3759 13.5451 28.4822 13.3764 28.6697L10.3051 32.0829C9.95637 32.4704 9.38262 32.4704 9.03387 32.0829C8.68512 31.6953 8.68512 31.0577 9.03387 30.6701L12.1051 27.2569C12.6114 26.6943 13.2976 26.3755 14.012 26.3755H21.3639C22.3595 26.3755 23.1639 25.4816 23.1639 24.3751C23.1639 24.2626 23.1526 24.1501 23.1414 24.0375C23.0964 23.7437 23.1695 23.4437 23.3439 23.2186C23.5183 22.9936 23.7714 22.8686 24.0414 22.8686H24.0639C25.0595 22.8686 25.8639 21.9746 25.8639 20.8682C25.8639 20.4868 25.7682 20.1368 25.6051 19.8305C25.4532 19.5492 25.4307 19.2053 25.5545 18.9053C25.6782 18.6052 25.9201 18.3927 26.207 18.3302C27.0395 18.1551 27.6639 17.3425 27.6639 16.3673C27.6639 15.2608 26.8595 14.3669 25.8639 14.3669H19.5639V16.3673C19.5639 18.574 17.9495 20.3681 15.9639 20.3681C13.9782 20.3681 12.3639 18.574 12.3639 16.3673V10.3724C12.3639 7.05922 14.7826 4.37119 17.7639 4.37119H24.2158C24.452 4.37119 24.6826 4.26492 24.8514 4.07738L27.9283 0.664217C28.277 0.276641 28.8507 0.276641 29.1995 0.664217ZM7.72887 12.2665C8.24637 10.7349 9.28137 9.5472 10.5639 8.90333V11.2225C10.052 11.6664 9.647 12.2665 9.41075 12.9666L7.94262 17.3175C7.80762 17.7175 7.59387 18.0801 7.32387 18.3864L2.1995 24.0813C1.85075 24.4689 1.277 24.4689 0.928249 24.0813C0.5795 23.6937 0.5795 23.0561 0.928249 22.6685L6.05262 16.9737C6.14262 16.8736 6.21575 16.7486 6.26075 16.6173L7.72887 12.2665ZM36.4051 8.66578C36.7539 9.05336 36.7539 9.69098 36.4051 10.0786L31.2414 15.8109C31.1739 15.0295 30.977 14.2856 30.6676 13.623L35.1282 8.66578C35.477 8.2782 36.0507 8.2782 36.3995 8.66578H36.4051Z" fill="#0C1F31"/>
</symbol>

<symbol id="hand-shake">
<path d="M38.2103 1.55382H35.6404C35.17 1.54204 34.7143 1.71737 34.3732 2.04121C34.032 2.36505 33.8328 2.8109 33.8194 3.28132V4.17366L30.2686 1.74653V1.7462C29.1669 0.991229 27.8621 0.587902 26.5264 0.589577H20.958C19.6234 0.592194 18.3463 1.13454 17.4177 2.09264L17.3454 2.16754L6.24226 2.39685V1.9245C6.24161 1.41454 6.0388 0.925145 5.678 0.56439C5.31719 0.203586 4.82786 0.000775246 4.31755 0.00012207H1.95514C1.44485 0.000776335 0.955785 0.203586 0.595031 0.56439C0.234226 0.925195 0.0314149 1.41452 0.0307617 1.9245V18.3845C0.0314159 18.8945 0.234226 19.3839 0.595031 19.7447C0.955835 20.1054 1.44483 20.3083 1.95514 20.3089H4.31755C4.82785 20.3083 5.31724 20.1055 5.678 19.7447C6.0388 19.3838 6.24161 18.8945 6.24226 18.3845V16.677H6.51998L14.2258 25.5861C14.2431 25.6061 14.2621 25.6244 14.2827 25.6411C15.0131 26.2198 15.8983 26.5698 16.8267 26.6479C17.0779 26.6495 17.3275 26.6083 17.5646 26.5256C18.3094 26.2178 18.8659 25.5766 19.0661 24.7958C19.9372 25.3915 20.7193 25.557 21.3971 25.2875C22.3346 24.9146 22.7647 23.8249 22.9535 23.0838C23.5371 23.4518 24.467 23.8711 25.3372 23.5492C26.1311 23.2558 26.6679 22.4357 26.9374 21.1086V21.1089C27.5013 21.3978 28.1493 21.4789 28.7669 21.3379C29.0459 21.2542 29.2991 21.1018 29.5029 20.8937L33.8192 20.3648V20.8718C33.8326 21.3419 34.0318 21.7877 34.373 22.1116C34.7141 22.4354 35.1698 22.6107 35.6402 22.5993H38.21C38.6801 22.6107 39.1361 22.4354 39.4773 22.1116C39.8185 21.7877 40.0177 21.3419 40.0308 20.8718V3.28126C40.0177 2.81088 39.8185 2.36506 39.4773 2.04115C39.1361 1.71731 38.6801 1.54198 38.21 1.55376L38.2103 1.55382ZM34.6885 9.8144H39.1618V11.2802H34.6885V9.8144ZM35.6404 2.42262L38.2103 2.42295C38.7094 2.39907 39.1343 2.78212 39.1618 3.28129V8.94525H34.6885V3.28129C34.7164 2.78212 35.1413 2.39908 35.6404 2.42295V2.42262ZM1.9558 0.869153H4.31821C4.90079 0.869808 5.37317 1.34183 5.37376 1.92445V7.9809H0.900506V1.92445C0.90116 1.34187 1.37318 0.869823 1.9558 0.869153ZM5.37376 18.3843C5.3731 18.9669 4.90076 19.4389 4.31821 19.4396H1.9558C1.37322 19.439 0.901176 18.9669 0.900506 18.3843V8.84962H5.37376V18.3843ZM28.5213 20.5046C27.9508 20.5825 27.3718 20.4454 26.8966 20.1206L20.3811 11.2667C20.2389 11.0734 19.967 11.0319 19.7737 11.1741C19.5804 11.3164 19.5388 11.5886 19.6811 11.7819L26.1494 20.5722C25.9656 21.7847 25.5832 22.5315 25.0376 22.734C24.3212 23.0013 23.334 22.3375 22.9761 22.0291L16.5405 13.3603C16.3972 13.1676 16.1251 13.1274 15.9324 13.2703C15.7398 13.4132 15.6995 13.6854 15.8425 13.8784L22.2006 22.4425C22.1021 23.0369 21.7743 24.2044 21.0752 24.4815C20.4783 24.718 19.6991 24.2276 19.1374 23.7598L13.2066 15.7332C13.064 15.5402 12.7918 15.4993 12.5988 15.6419C12.4058 15.7845 12.3649 16.0567 12.5075 16.2497L18.3504 24.1573C18.1341 25.0084 17.7733 25.5295 17.2761 25.7068C16.4384 26.0051 15.2742 25.3084 14.8562 24.9865L7.04774 15.9584C6.96531 15.8629 6.84525 15.8083 6.71899 15.8083H6.24272V3.26648L16.4892 3.05485C14.5884 5.02275 12.0143 7.68084 10.9077 8.82348V8.82315C10.6729 9.06751 10.5338 9.38807 10.5155 9.72629C10.4972 10.0645 10.6012 10.3982 10.8083 10.6664C11.5682 11.6416 13.3058 13.0488 16.4058 11.5143C16.4392 11.498 16.47 11.4774 16.4981 11.4532L20.2255 8.21968C20.4372 8.08621 21.7139 7.40582 23.0724 9.43166L28.9908 18.2571C29.1639 18.506 29.2666 18.7971 29.2875 19.0994C29.3085 19.4017 29.2473 19.7042 29.1106 19.9748C28.9974 20.2263 28.7835 20.419 28.5214 20.5053L28.5213 20.5046ZM30.0538 19.9512C30.273 19.2106 30.1477 18.4107 29.7127 17.7726L23.7942 8.94715C23.1171 7.93766 22.3396 7.34427 21.4826 7.18341C20.8722 7.06826 20.2409 7.18668 19.7139 7.51575C19.7015 7.52426 19.6894 7.53375 19.6776 7.54389L15.9707 10.7597C13.5819 11.9209 12.2184 11.0619 11.4939 10.132C11.3303 9.92033 11.3467 9.62069 11.5318 9.42769C12.7889 8.12971 15.9393 4.87622 17.8463 2.89986L18.0433 2.69575L18.0436 2.69607C18.8081 1.90708 19.8594 1.4609 20.9582 1.45864H26.5266C27.6872 1.45733 28.8209 1.80767 29.7784 2.46386L33.8199 5.22663L33.8196 19.4893L30.0538 19.9512ZM38.2103 21.7303H35.6405C35.1413 21.7542 34.7164 21.3708 34.6886 20.872V12.1496H39.1619V20.872C39.1344 21.3708 38.7095 21.7542 38.2103 21.7303Z" fill="#0C1F31"/>
<path d="M41.8001 3.53849C42.2692 3.53849 42.7193 3.35236 43.0512 3.02035C43.3829 2.68866 43.5694 2.23856 43.5694 1.76943C43.5694 1.30003 43.3829 0.849963 43.0512 0.518267C42.7192 0.186579 42.2691 0.00012207 41.8001 0.00012207C41.3307 0.00012207 40.8809 0.186579 40.5489 0.518267C40.2172 0.849954 40.0308 1.30006 40.0308 1.76943C40.0314 2.23851 40.2179 2.68798 40.5496 3.01968C40.8812 3.35137 41.331 3.53817 41.8001 3.53849ZM41.8001 0.869257C42.1642 0.869257 42.4922 1.08842 42.6316 1.42502C42.7709 1.76129 42.6941 2.14826 42.4366 2.4057C42.1792 2.66347 41.7919 2.74034 41.4556 2.60099C41.1193 2.46163 40.8999 2.13355 40.8999 1.76947C40.9005 1.27226 41.3032 0.869592 41.8001 0.869257Z" fill="#0C1F31"/>
</symbol>

<symbol id="badge">
<path d="M27.2712 16.3046V4.44666L27.0831 4.28074C23.2614 0.862784 14.3737 0.823975 13.9976 0.823975C13.6215 0.823975 4.73369 0.862739 0.912086 4.28074L0.729375 4.44666V16.2825C0.723943 16.3931 0.331109 27.2612 13.8205 31.7687L13.9976 31.824L14.1746 31.7687C27.3878 27.3552 27.2829 16.8356 27.2715 16.3046H27.2712ZM13.9974 30.6568C1.50919 26.3984 1.81323 16.7471 1.83535 16.3103V4.9498C5.4526 1.96888 13.9095 1.93013 13.9974 1.93013C14.0852 1.93013 22.5369 1.96346 26.1651 4.9498V16.3375C26.1705 16.437 26.5191 26.3814 13.9974 30.6568Z" fill="#0C1F31"/>
<path d="M13.9974 6.07812C8.66015 6.07812 4.31885 10.4198 4.31885 15.7567C4.31885 21.0935 8.66053 25.4352 13.9974 25.4352C19.3342 25.4352 23.6759 21.0935 23.6759 15.7567C23.6759 10.4198 19.3342 6.07812 13.9974 6.07812ZM13.9974 24.3297C9.2686 24.3297 5.425 20.4858 5.425 15.7573C5.425 11.0288 9.26886 7.18491 13.9974 7.18491C18.7259 7.18491 22.5698 11.0288 22.5698 15.7573C22.5698 20.4858 18.7259 24.3297 13.9974 24.3297Z" fill="#0C1F31"/>
<path d="M13.9973 8.17468L11.6467 13.003H6.53613L10.8336 16.2385L9.21852 21.8357L13.9918 18.3237L18.7703 21.8357L17.1609 16.2385L21.4583 13.003H16.3478L13.9973 8.17468Z" fill="#0C1F31"/>
</symbol>

<symbol id="innovation">
<path fill-rule="evenodd" clip-rule="evenodd" d="M14.1874 0.824056C13.9917 0.827021 13.8052 0.907558 13.6688 1.04789C13.5324 1.18821 13.4576 1.37695 13.4603 1.57287V3.04925C13.4603 3.45688 13.7909 3.78744 14.1987 3.78744C14.6064 3.78744 14.9369 3.45689 14.9369 3.04925V1.57287C14.9399 1.37325 14.8618 1.18105 14.7205 1.03998C14.5795 0.898913 14.387 0.821096 14.1874 0.824056ZM3.75769 5.14892C3.45752 5.14892 3.1875 5.33075 3.07433 5.60868C2.96118 5.88661 3.02763 6.2053 3.24232 6.41505L4.28586 7.46054C4.42322 7.60408 4.61295 7.68635 4.81182 7.68833C5.0107 7.69055 5.20216 7.61248 5.34273 7.47191C5.4833 7.33134 5.56137 7.13987 5.55915 6.941C5.55717 6.74213 5.47491 6.55239 5.33137 6.41503L4.28587 5.3715C4.14678 5.2292 3.95657 5.14892 3.75769 5.14892ZM24.6215 5.14892C24.429 5.15386 24.2462 5.23365 24.1121 5.37151L23.0685 6.41505C22.78 6.70311 22.7795 7.17076 23.0675 7.45934C23.3556 7.74814 23.8232 7.74864 24.1121 7.46058L25.1576 6.41508C25.3752 6.20286 25.4405 5.87873 25.3219 5.59884C25.2033 5.31893 24.9253 5.14027 24.6215 5.14892ZM14.2 5.26132C12.2836 5.26132 10.4945 5.82781 8.99618 6.79747C8.83041 6.90321 8.71356 7.07046 8.67156 7.26267C8.62956 7.45463 8.66612 7.65548 8.77285 7.82051C8.87958 7.98579 9.04782 8.1014 9.24002 8.14192C9.43248 8.18268 9.63307 8.14488 9.79737 8.03692C11.0667 7.21524 12.5739 6.73692 14.2 6.73692C18.6914 6.73692 22.3194 10.3619 22.3162 14.8525C22.3147 17.7484 20.767 20.4207 18.2582 21.8695C18.0297 22.0014 17.8891 22.245 17.8891 22.5086V24.4454H16.4127V19.4543L16.8796 18.5231C16.9688 18.5343 17.0587 18.5419 17.1506 18.5419C18.3644 18.5419 19.365 17.5414 19.365 16.3276C19.365 15.1139 18.3644 14.117 17.1506 14.117C15.9369 14.117 14.9371 15.1139 14.9371 16.3276C14.9371 16.92 15.176 17.4611 15.5611 17.8603L15.0156 18.9505C14.9643 19.0525 14.9373 19.1654 14.9371 19.2798V24.4454H13.4604V19.2798C13.4609 19.1657 13.4347 19.0528 13.3841 18.9505L12.8379 17.8595C13.222 17.4603 13.4605 16.9195 13.4605 16.3275C13.4605 15.1138 12.4629 14.1169 11.2491 14.1169C10.0353 14.1169 9.03553 15.1138 9.03553 16.3275C9.03553 17.5413 10.0354 18.5419 11.2491 18.5419C11.3417 18.5419 11.4327 18.5344 11.5223 18.5231L11.9878 19.4542V24.4454H10.5107V22.5122C10.5107 22.2486 10.3701 22.0048 10.1416 21.8732C7.63206 20.4242 6.08579 17.7504 6.08357 14.853C6.08283 13.9364 6.23749 13.0577 6.51789 12.2345C6.5878 12.0475 6.57916 11.8402 6.49368 11.6601C6.40844 11.4798 6.25354 11.3417 6.0648 11.2775C5.87581 11.213 5.66903 11.2281 5.4914 11.3187C5.31352 11.4094 5.18012 11.5682 5.12156 11.759C4.79076 12.7291 4.60696 13.7707 4.6077 14.8545C4.61042 18.119 6.30911 21.1103 9.03483 22.8676V25.1834C9.03483 25.5908 9.36538 25.9213 9.77277 25.9213H18.627C19.0344 25.9213 19.365 25.5908 19.365 25.1834V22.8638C22.0894 21.1071 23.7901 18.1178 23.7921 14.8545C23.7951 9.56519 19.4887 5.26158 14.1998 5.26158L14.2 5.26132ZM7.21464 8.66667C6.98933 8.66865 6.77736 8.77315 6.63877 8.95053C6.38826 9.2717 6.44533 9.7354 6.76649 9.98617C7.08765 10.2367 7.5511 10.1796 7.80187 9.85844C8.05238 9.53728 7.99531 9.07383 7.67439 8.82306C7.54321 8.72054 7.38115 8.66544 7.21464 8.66667ZM0.919833 15.5894C0.512202 15.5894 0.181641 15.92 0.181641 16.3279C0.181641 16.7355 0.512195 17.0661 0.919833 17.0661H2.39274C2.80037 17.0661 3.13093 16.7355 3.13093 16.3279C3.13093 15.92 2.80038 15.5894 2.39274 15.5894H0.919833ZM11.249 15.5894C11.6652 15.5894 11.9877 15.9111 11.9877 16.3274C11.9877 16.7437 11.6653 17.0661 11.249 17.0661C10.8327 17.0661 10.5113 16.7437 10.5113 16.3274C10.5113 15.9111 10.8327 15.5894 11.249 15.5894ZM17.1504 15.5894C17.5667 15.5894 17.8889 15.9111 17.8889 16.3274C17.8889 16.7437 17.5667 17.0661 17.1504 17.0661C16.7342 17.0661 16.4125 16.7437 16.4125 16.3274C16.4125 15.9111 16.7342 15.5894 17.1504 15.5894ZM26.0047 15.5894C25.5968 15.5894 25.2665 15.92 25.2665 16.3279C25.2665 16.7355 25.5968 17.0661 26.0047 17.0661H27.4803C27.888 17.0661 28.2185 16.7355 28.2185 16.3279C28.2185 15.92 27.888 15.5894 27.4803 15.5894H26.0047ZM9.77359 27.3953C9.36595 27.3953 9.03539 27.7259 9.03539 28.1335C9.03539 28.5414 9.36595 28.8717 9.77359 28.8717H18.6272C19.0348 28.8717 19.3654 28.5414 19.3654 28.1335C19.3654 27.7259 19.0348 27.3953 18.6272 27.3953H9.77359ZM11.2492 30.3476C10.8416 30.3476 10.511 30.6781 10.511 31.0858C10.511 31.4934 10.8416 31.824 11.2492 31.824H17.1507C17.5583 31.824 17.8889 31.4934 17.8889 31.0858C17.8889 30.6781 17.5583 30.3476 17.1507 30.3476H11.2492Z" fill="#0C1F31"/>
</symbol>

<symbol id="safety">
<path d="M14.3994 30.3325C17.6926 29.1906 21.0468 27.4809 23.374 25.0311C25.2169 23.0915 26.4166 20.674 26.4166 17.686V8.51401C24.5993 8.13302 19.0929 6.69499 14.3995 2.52978C9.70618 6.69499 4.1996 8.13321 2.38239 8.51401V17.686C2.38239 20.6743 3.58212 23.0927 5.42494 25.0311C7.75214 27.4809 11.1061 29.1906 14.3996 30.3325H14.3994ZM13.2452 17.3644L19.3996 11.21C19.6836 10.9259 20.1434 10.9259 20.4263 11.21L23.0908 13.8735C23.3748 14.1575 23.3748 14.6174 23.0908 14.9014L13.894 24.0983C13.6099 24.3823 13.1501 24.3823 12.866 24.0983L5.73065 17.5515C5.43625 17.2807 5.41725 16.8211 5.68781 16.5265L8.23455 13.75C8.50533 13.4556 8.96494 13.4366 9.25957 13.7072L13.2452 17.3633L13.2452 17.3644ZM19.9135 12.7517L13.7817 18.8835L13.7808 18.8826C13.5072 19.1563 13.0646 19.1675 12.7768 18.9036L8.81303 15.2674L7.24669 16.9753L13.357 22.5816L21.5486 14.39L19.912 12.7535L19.9135 12.7517ZM24.4246 26.0302C21.8562 28.7335 18.1888 30.581 14.6324 31.7854C14.487 31.8349 14.3247 31.8387 14.167 31.7854C10.6107 30.58 6.94229 28.7325 4.37479 26.0302C2.28788 23.8331 0.928711 21.088 0.928711 17.6854V7.91411H0.931582C0.931582 7.56273 1.18712 7.25395 1.54516 7.19876C1.56504 7.19589 8.43686 6.1682 13.9032 1.0206C14.1797 0.760424 14.6157 0.756449 14.8968 1.0206C20.0776 5.89918 26.5187 7.0772 27.196 7.18915C27.5731 7.21566 27.8714 7.53016 27.8714 7.914V17.6853C27.8714 21.0879 26.512 23.8341 24.4253 26.0301L24.4246 26.0302Z" fill="#0C1F31"/>
</symbol>

<symbol id="card-search">
<path d="M21.0021 13.0013C21.0021 11.5566 20.7531 10.1261 20.2693 8.79134C19.7856 7.45663 19.0765 6.24388 18.1827 5.22233C17.2888 4.20079 16.2277 3.39046 15.0598 2.8376C13.8919 2.28475 12.6402 2.0002 11.3761 2.0002C10.112 2.0002 8.8603 2.28475 7.69242 2.8376C6.52455 3.39046 5.46339 4.20079 4.56954 5.22233C3.67569 6.24388 2.96665 7.45663 2.4829 8.79134C1.99915 10.1261 1.75017 11.5566 1.75017 13.0013C1.75017 14.446 1.99915 15.8765 2.4829 17.2112C2.96665 18.5459 3.67569 19.7587 4.56954 20.7802C5.46339 21.8017 6.52455 22.6121 7.69242 23.1649C8.8603 23.7178 10.112 24.0023 11.3761 24.0023C12.6402 24.0023 13.8919 23.7178 15.0598 23.1649C16.2277 22.6121 17.2888 21.8017 18.1827 20.7802C19.0765 19.7587 19.7856 18.5459 20.2693 17.2112C20.7531 15.8765 21.0021 14.446 21.0021 13.0013ZM18.7761 22.8772C16.7907 24.8274 14.2037 26.0025 11.3761 26.0025C5.0919 26.0025 0 20.1832 0 13.0013C0 5.81932 5.0919 0 11.3761 0C17.6603 0 22.7522 5.81932 22.7522 13.0013C22.7522 16.2328 21.724 19.1894 20.0176 21.4583L27.7457 30.2967C28.0848 30.6842 28.0848 31.3218 27.7457 31.7093C27.4066 32.0969 26.8487 32.0969 26.5096 31.7093L18.7761 22.8772Z" fill="#0C1F31"/>
</symbol>

<symbol id="glosary">
<path d="M4.33334 0C2.12709 0 0.333344 1.79375 0.333344 4V28C0.333344 30.2062 2.12709 32 4.33334 32H27.3333C27.8833 32 28.3333 31.55 28.3333 31C28.3333 30.45 27.8833 30 27.3333 30H26.3333V25.8312C27.4958 25.4187 28.3333 24.3062 28.3333 23V3C28.3333 1.34375 26.9896 0 25.3333 0H4.33334ZM24.3333 26V30H4.33334C3.22709 30 2.33334 29.1063 2.33334 28C2.33334 26.8937 3.22709 26 4.33334 26H24.3333ZM4.33334 24C3.60209 24 2.92084 24.1938 2.33334 24.5375V4C2.33334 2.89375 3.22709 2 4.33334 2H6.33334V24H4.33334ZM8.33334 24V2H25.3333C25.8833 2 26.3333 2.45 26.3333 3V23C26.3333 23.55 25.8833 24 25.3333 24H8.33334ZM11.3333 9C11.3333 9.55 11.7833 10 12.3333 10H22.3333C22.8833 10 23.3333 9.55 23.3333 9C23.3333 8.45 22.8833 8 22.3333 8H12.3333C11.7833 8 11.3333 8.45 11.3333 9ZM11.3333 15C11.3333 15.55 11.7833 16 12.3333 16H22.3333C22.8833 16 23.3333 15.55 23.3333 15C23.3333 14.45 22.8833 14 22.3333 14H12.3333C11.7833 14 11.3333 14.45 11.3333 15Z" fill="#0C1F31"/>
</symbol>


<symbol id="opinion">
<path d="M24.6667 2C25.7729 2 26.6667 2.89375 26.6667 4V28C26.6667 29.1063 25.7729 30 24.6667 30H4.66669C3.56044 30 2.66669 29.1063 2.66669 28V4C2.66669 2.89375 3.56044 2 4.66669 2H24.6667ZM4.66669 0C2.46044 0 0.666687 1.79375 0.666687 4V28C0.666687 30.2062 2.46044 32 4.66669 32H24.6667C26.8729 32 28.6667 30.2062 28.6667 28V4C28.6667 1.79375 26.8729 0 24.6667 0H4.66669ZM10.6667 8C10.6667 8.55 11.1167 9 11.6667 9H22.6667C23.2167 9 23.6667 8.55 23.6667 8C23.6667 7.45 23.2167 7 22.6667 7H11.6667C11.1167 7 10.6667 7.45 10.6667 8ZM12.6667 16C12.6667 16.55 13.1167 17 13.6667 17H22.6667C23.2167 17 23.6667 16.55 23.6667 16C23.6667 15.45 23.2167 15 22.6667 15H13.6667C13.1167 15 12.6667 15.45 12.6667 16ZM10.6667 24C10.6667 24.55 11.1167 25 11.6667 25H22.6667C23.2167 25 23.6667 24.55 23.6667 24C23.6667 23.45 23.2167 23 22.6667 23H11.6667C11.1167 23 10.6667 23.45 10.6667 24ZM6.16669 6.5C5.61669 6.5 5.16669 6.95 5.16669 7.5V8.5C5.16669 9.05 5.61669 9.5 6.16669 9.5H7.16669C7.71669 9.5 8.16669 9.05 8.16669 8.5V7.5C8.16669 6.95 7.71669 6.5 7.16669 6.5H6.16669ZM5.16669 23.5V24.5C5.16669 25.05 5.61669 25.5 6.16669 25.5H7.16669C7.71669 25.5 8.16669 25.05 8.16669 24.5V23.5C8.16669 22.95 7.71669 22.5 7.16669 22.5H6.16669C5.61669 22.5 5.16669 22.95 5.16669 23.5ZM10.8729 15.2063C11.2604 14.8188 11.2604 14.1812 10.8729 13.7937C10.4854 13.4062 9.84794 13.4062 9.46044 13.7937L7.16669 16.0875L6.37294 15.2937C5.98544 14.9062 5.34794 14.9062 4.96044 15.2937C4.57294 15.6812 4.57294 16.3187 4.96044 16.7062L6.46044 18.2062C6.84794 18.5937 7.48544 18.5937 7.87294 18.2062L10.8729 15.2063Z" fill="#0C1F31"/>
</symbol>

<symbol id="health-glosary">
<path d="M2.08337 14.4552C2.08337 7.83145 6.7865 2.4575 12.5834 2.4575H13.4584C17.0732 2.4575 20.4092 4.95701 21.8693 8.51256C22.0443 8.94373 22.2248 9.39989 22.4107 9.86855C22.7498 10.7371 23.1052 11.6495 23.4935 12.493C24.1006 13.824 24.8498 15.1363 25.8998 16.2048L26.0748 16.3798C26.4029 16.711 26.5943 17.1921 26.5943 17.6983C26.5943 18.6731 25.9052 19.4604 25.0521 19.4604H23.9584C23.4771 19.4604 23.0834 19.9103 23.0834 20.4602V24.4594C23.0834 25.5655 22.3013 26.4591 21.3334 26.4591H16.9584C16.4771 26.4591 16.0834 26.909 16.0834 27.4589V31.4581C16.0834 32.008 16.4771 32.4579 16.9584 32.4579C17.4396 32.4579 17.8334 32.008 17.8334 31.4581V28.4524H21.3334C23.2638 28.4524 24.8334 26.659 24.8334 24.4532V21.4538H25.0412C26.8568 21.4538 28.3334 19.7729 28.3334 17.692C28.3334 16.6172 27.9287 15.5924 27.2287 14.8801L27.0537 14.7051C26.2279 13.8615 25.599 12.793 25.0357 11.562C24.6693 10.7684 24.3631 9.96853 24.0404 9.14369C23.849 8.65629 23.6576 8.16263 23.4498 7.65648C21.7053 3.41356 17.7568 0.457886 13.4584 0.457886H12.5834C5.81853 0.457886 0.333374 6.72541 0.333374 14.4552C0.333374 17.7608 1.33962 20.8039 3.01853 23.2034C3.53259 23.9283 3.83337 24.7406 3.83337 25.5405V31.4518C3.83337 32.0017 4.22712 32.4516 4.70837 32.4516C5.18962 32.4516 5.58337 32.0017 5.58337 31.4518V25.5405C5.58337 24.1595 5.06384 22.9223 4.38572 21.9537C2.94197 19.8978 2.08337 17.2921 2.08337 14.4552ZM8.20837 12.2868C8.20837 11.2745 8.92478 10.4559 9.81072 10.4559C10.2373 10.4559 10.642 10.6496 10.9427 10.9933L11.9654 12.1619C12.3045 12.5493 12.8623 12.5493 13.2013 12.1619L14.224 10.9933C14.5248 10.6496 14.9295 10.4559 15.356 10.4559C16.242 10.4559 16.9584 11.2745 16.9584 12.2868C16.9584 12.7742 16.7888 13.2366 16.4881 13.5803L12.5834 18.042L8.67869 13.5803C8.37791 13.2366 8.20837 12.7742 8.20837 12.2868ZM9.81072 8.45632C7.96228 8.45632 6.45837 10.1685 6.45837 12.2868C6.45837 13.2991 6.81384 14.2739 7.43728 14.9925L11.9599 20.1603C12.299 20.5477 12.8568 20.5477 13.1959 20.1603L17.7185 14.9925C18.3474 14.2739 18.6974 13.2991 18.6974 12.2868C18.6974 10.1747 17.199 8.45632 15.3451 8.45632C14.4592 8.45632 13.606 8.86249 12.9771 9.57486L12.5724 10.0373L12.1677 9.57486C11.5388 8.85625 10.6857 8.45632 9.79978 8.45632H9.81072Z" fill="#0C1F31"/>
</symbol>

<symbol id="representative">
<path d="M11 2.375V6.2875C11.6313 6.1 12.3062 6 13 6C13.6938 6 14.3687 6.1 15 6.2875V2H14C12.9625 2 11.9563 2.13125 11 2.375ZM9 3.0875C4.86875 4.98125 2 9.15625 2 14C2 16.8375 2.98125 19.4437 4.63125 21.5C5.40625 22.4688 6 23.7062 6 25.0875V31C6 31.55 5.55 32 5 32C4.45 32 4 31.55 4 31V25.0875C4 24.2875 3.65625 23.4812 3.06875 22.75C1.15 20.35 0 17.3063 0 14C0 6.26875 6.26875 0 14 0H15C19.9125 0 24.425 2.95625 26.4188 7.20625C26.6563 7.7125 26.875 8.20625 27.0938 8.69375C27.4625 9.51875 27.8188 10.3188 28.2313 11.1125C28.875 12.3375 29.5875 13.4125 30.5375 14.2563L30.7375 14.4312C31.5375 15.1437 32 16.1687 32 17.2437C32 19.3187 30.3187 21.0063 28.2375 21.0063H28V24.0063C28 26.2125 26.2062 28.0063 24 28.0063H20V31.0063C20 31.5563 19.55 32.0062 19 32.0062C18.45 32.0062 18 31.5563 18 31.0063V27C18 26.45 18.45 26 19 26H24C25.1063 26 26 25.1063 26 24V20C26 19.45 26.45 19 27 19H28.2375C29.2125 19 30 18.2125 30 17.2375C30 16.7375 29.7875 16.2562 29.4062 15.9187L29.2062 15.7437C28.0062 14.675 27.1562 13.3625 26.4562 12.0312C26.0187 11.1875 25.6125 10.2812 25.2188 9.40625C25.0062 8.9375 24.8063 8.475 24.6 8.05C23.2188 5.0875 20.325 2.85 17 2.19375V7.25625C18.8125 8.51875 20 10.625 20 13C20 16.8688 16.8688 20 13 20C9.13125 20 6 16.8688 6 13C6 10.6188 7.1875 8.51875 9 7.25625V3.0875ZM18 13C18 11.6739 17.4732 10.4021 16.5355 9.46447C15.5979 8.52678 14.3261 8 13 8C11.6739 8 10.4021 8.52678 9.46447 9.46447C8.52678 10.4021 8 11.6739 8 13C8 14.3261 8.52678 15.5979 9.46447 16.5355C10.4021 17.4732 11.6739 18 13 18C14.3261 18 15.5979 17.4732 16.5355 16.5355C17.4732 15.5979 18 14.3261 18 13ZM13 14C13.2652 14 13.5196 13.8946 13.7071 13.7071C13.8946 13.5196 14 13.2652 14 13C14 12.7348 13.8946 12.4804 13.7071 12.2929C13.5196 12.1054 13.2652 12 13 12C12.7348 12 12.4804 12.1054 12.2929 12.2929C12.1054 12.4804 12 12.7348 12 13C12 13.2652 12.1054 13.5196 12.2929 13.7071C12.4804 13.8946 12.7348 14 13 14ZM13 10C13.7956 10 14.5587 10.3161 15.1213 10.8787C15.6839 11.4413 16 12.2044 16 13C16 13.7956 15.6839 14.5587 15.1213 15.1213C14.5587 15.6839 13.7956 16 13 16C12.2044 16 11.4413 15.6839 10.8787 15.1213C10.3161 14.5587 10 13.7956 10 13C10 12.2044 10.3161 11.4413 10.8787 10.8787C11.4413 10.3161 12.2044 10 13 10Z" fill="#0C1F31"/>
</symbol>

<symbol id="arrow-left">
<path d="M0.84363 6.98486L7.48426 0.344238C7.94324 -0.114746 8.68543 -0.114746 9.13953 0.344238L10.243 1.44775C10.702 1.90674 10.702 2.64893 10.243 3.10303L5.5409 7.81494L10.2479 12.522C10.7069 12.981 10.7069 13.7231 10.2479 14.1772L9.14441 15.2856C8.68543 15.7446 7.94324 15.7446 7.48914 15.2856L0.848513 8.64502C0.384646 8.18604 0.384646 7.44385 0.84363 6.98486Z"/>
</symbol>

<symbol id="arrow-right">
<path d="M10.1562 6.98486L3.51562 0.344238C3.05664 -0.114746 2.31445 -0.114746 1.86035 0.344238L0.756833 1.44775C0.297849 1.90674 0.297849 2.64893 0.756833 3.10303L5.45898 7.81494L0.75195 12.522C0.292966 12.981 0.292966 13.7231 0.75195 14.1772L1.85547 15.2856C2.31445 15.7446 3.05664 15.7446 3.51074 15.2856L10.1514 8.64502C10.6152 8.18604 10.6152 7.44385 10.1562 6.98486Z" fill="#0C1F31"/>
</symbol>

<symbol id="tax">
<path d="M14.7778 1.5V2.58125C15.191 2.65625 15.5896 2.775 15.9493 2.9C16.3625 3.04375 16.6104 3.5875 16.4986 4.125C16.3868 4.6625 15.9639 4.975 15.5458 4.83125C15.0062 4.64375 14.4764 4.50625 13.9854 4.5C13.5771 4.49375 13.1444 4.6125 12.8382 4.84375C12.5611 5.05625 12.4444 5.3 12.4444 5.64375C12.4444 5.875 12.5076 6.05 12.7993 6.275C13.1347 6.53125 13.6062 6.71875 14.2188 6.95625L14.2431 6.9625C14.7924 7.175 15.4729 7.4375 16.0076 7.875C16.5958 8.35 17.0965 9.10625 17.1111 10.2625C17.1257 11.4688 16.6444 12.3438 15.9979 12.8625C15.6236 13.1625 15.2007 13.3375 14.7778 13.4312V14.5C14.7778 15.05 14.4278 15.5 14 15.5C13.5722 15.5 13.2222 15.05 13.2222 14.5V13.3875C12.6778 13.2562 12.1674 13.0312 11.7201 12.8313C11.6181 12.7875 11.516 12.7437 11.4187 12.7C11.0104 12.525 10.7917 11.9563 10.9278 11.4375C11.0639 10.9187 11.5063 10.6312 11.9097 10.8062C12.0312 10.8562 12.1431 10.9062 12.2549 10.9563C12.916 11.2438 13.4507 11.4812 14.0194 11.5C14.4618 11.5188 14.8896 11.3938 15.1715 11.1687C15.4194 10.9688 15.5556 10.7125 15.5507 10.2937C15.5458 10.0062 15.4632 9.80625 15.1764 9.56875C14.8458 9.3 14.3743 9.10625 13.7667 8.86875L13.6889 8.8375C13.1542 8.63125 12.5076 8.38125 11.9972 7.98125C11.4139 7.53125 10.8986 6.8 10.8938 5.65C10.8889 4.44375 11.4187 3.60625 12.0507 3.125C12.4153 2.85 12.8188 2.675 13.2222 2.58125V1.5C13.2222 0.95 13.5722 0.5 14 0.5C14.4278 0.5 14.7778 0.95 14.7778 1.5ZM7.34028 19.8375C7.97708 19.2875 8.73056 19 9.49861 19H16.7222C18.2243 19 19.4444 20.5688 19.4444 22.5C19.4444 23.0375 19.3521 23.5438 19.1819 24H19.4542L24.0576 20.475C24.4611 20.1688 24.9229 20 25.3944 20H25.4576C26.8625 20 28 21.4625 28 23.2687C28 24.375 27.5625 25.4062 26.8431 26.0063L21.0292 30.8687C20.1444 31.6062 19.1139 32 18.0639 32H0.777778C0.35 32 0 31.55 0 31C0 30.45 0.35 30 0.777778 30H18.059C18.8125 30 19.5465 29.7188 20.1785 29.1938L25.9924 24.3312C26.2743 24.1 26.4396 23.6937 26.4396 23.2687C26.4396 22.5687 25.9972 22 25.4528 22H25.3896C25.2 22 25.0153 22.0688 24.85 22.1875L20.0618 25.8563C19.9403 25.95 19.8042 26 19.6632 26H16.7222H15.5556H12.4444C12.0167 26 11.6667 25.55 11.6667 25C11.6667 24.45 12.0167 24 12.4444 24H15.5556H16.7222C17.3687 24 17.8889 23.3312 17.8889 22.5C17.8889 21.6688 17.3687 21 16.7222 21H9.49861C9.03681 21 8.58958 21.175 8.20556 21.5063L4.32153 24.8312L4.12708 25H3.88889H0.777778C0.35 25 0 24.55 0 24C0 23.45 0.35 23 0.777778 23H3.65556L7.34028 19.8375Z" fill="#0C1F31"/>
</symbol>

<symbol id="restitution-info">
<path d="M24.5294 8.5V8.2C24.5294 5.67976 24.5294 4.41965 24.0486 3.45704C23.6256 2.61031 22.9507 1.9219 22.1205 1.49047C21.1768 1 19.9414 1 17.4706 1H8.05882C5.588 1 4.35259 1 3.40887 1.49047C2.57874 1.9219 1.90382 2.61031 1.48085 3.45704C1 4.41965 1 5.67976 1 8.2V23.8C1 26.3202 1 27.5804 1.48085 28.543C1.90382 29.3897 2.57874 30.0781 3.40887 30.5095C4.35259 31 5.588 31 8.05882 31H13.5M13.5 14.5H6.88235M12.0294 20.5H6.88235M18.6471 8.5H6.88235M21.5882 25V16.75C21.5882 15.5074 22.5758 14.5 23.7941 14.5C25.0124 14.5 26 15.5074 26 16.75V25C26 27.4853 24.0248 29.5 21.5882 29.5C19.1517 29.5 17.1765 27.4853 17.1765 25V19" stroke="#0C1F31" stroke-width="1.5" stroke-linecap="round" stroke-linejoin="round"/>
</symbol>

<symbol id="support">
<path d="M7.2 29.0242H11.246C11.7735 29.0242 12.2978 29.0872 12.8092 29.2132L17.0842 30.2559C18.0118 30.4827 18.9781 30.5047 19.9154 30.322L24.6421 29.399C25.8907 29.1549 27.0394 28.5548 27.9395 27.6759L31.2837 24.4108C32.2388 23.48 32.2388 21.9695 31.2837 21.037C30.4239 20.1975 29.0623 20.103 28.0896 20.815L24.192 23.669C23.6339 24.0785 22.9547 24.299 22.2562 24.299H18.4925L20.8882 24.2989C22.2384 24.2989 23.3322 23.231 23.3322 21.9127V21.4354C23.3322 20.3408 22.5691 19.3863 21.4818 19.1217L17.7843 18.2192C17.1826 18.0727 16.5663 17.9987 15.9469 17.9987C14.4514 17.9987 11.7444 19.2414 11.7444 19.2414L7.2 21.1488M1 20.4878L1 29.5109C1 30.3821 1 30.8178 1.16894 31.1506C1.31754 31.4433 1.55466 31.6813 1.84631 31.8304C2.17788 32 2.61192 32 3.48 32H4.72C5.58808 32 6.02212 32 6.35368 31.8304C6.64534 31.6813 6.88246 31.4433 7.03106 31.1506C7.2 30.8178 7.2 30.3822 7.2 29.5109V20.4878C7.2 19.6165 7.2 19.1809 7.03106 18.8481C6.88246 18.5554 6.64534 18.3174 6.35369 18.1682C6.02212 17.9987 5.58808 17.9987 4.72 17.9987H3.48C2.61192 17.9987 2.17788 17.9987 1.84632 18.1682C1.55466 18.3174 1.31754 18.5554 1.16894 18.8481C1 19.1809 1 19.6165 1 20.4878ZM24.5466 3.36297C23.6216 1.42012 21.4888 0.390844 19.4147 1.3843C17.3405 2.37775 16.4569 4.73374 17.3253 6.80197C17.862 8.08019 19.3997 10.5624 20.496 12.2722C20.9011 12.9039 21.1037 13.2198 21.3995 13.4045C21.6533 13.563 21.971 13.6485 22.2697 13.6386C22.618 13.627 22.9507 13.4551 23.6163 13.1113C25.4175 12.1808 27.9857 10.8028 29.0873 9.96518C30.8697 8.60984 31.3111 6.11863 29.9767 4.22481C28.6423 2.33099 26.3156 2.14465 24.5466 3.36297Z" stroke="#0C1F31" stroke-width="1.5" stroke-linecap="round" stroke-linejoin="round"/>
</symbol>

<symbol id="file">
<path d="M18.05 7.22222L16.3209 3.75165C15.8233 2.75281 15.5744 2.25336 15.2032 1.88848C14.8749 1.5658 14.4793 1.3204 14.0449 1.17004C13.5537 1 12.9973 1 11.8846 1H5.96C4.22384 1 3.35576 1 2.69263 1.33909C2.10933 1.63736 1.63509 2.1133 1.33788 2.6987C1 3.3642 1 4.23539 1 5.97778V7.22222M1 7.22222H24.56C27.1642 7.22222 28.4664 7.22222 29.4611 7.73086C30.336 8.17827 31.0474 8.89218 31.4932 9.77027C32 10.7685 32 12.0753 32 14.6889V21.5333C32 24.1469 32 25.4537 31.4932 26.452C31.0474 27.33 30.336 28.044 29.4611 28.4914C28.4664 29 27.1642 29 24.56 29H8.44C5.83576 29 4.53363 29 3.53894 28.4914C2.66399 28.044 1.95263 27.33 1.50682 26.452C1 25.4537 1 24.1469 1 21.5333V7.22222Z" stroke="#0C1F31" stroke-width="1.5" stroke-linecap="round" stroke-linejoin="round"/>
</symbol>

</svg>